<svg xmlns="http://www.w3.org/2000/svg" xmlns:xlink="http://www.w3.org/1999/xlink" version="1.1" x="0px" y="0px" viewBox="0 0 100 100" enable-background="new 0 0 100 100" xml:space="preserve"><g><g><path d="M50,8.429C27.04,8.429,8.429,27.042,8.429,50C8.429,72.96,27.04,91.571,50,91.571c22.958,0,41.571-18.611,41.571-41.571    C91.571,27.042,72.958,8.429,50,8.429z M68.623,63.29c1.359,1.357,1.359,3.559,0,4.918l-0.416,0.418    c-1.359,1.357-3.561,1.357-4.92,0L50,55.335l-13.29,13.29c-1.357,1.357-3.559,1.357-4.918,0l-0.418-0.418    c-1.357-1.359-1.357-3.561,0-4.918L44.665,50l-13.29-13.288c-1.357-1.359-1.357-3.561,0-4.92l0.418-0.416    c1.359-1.359,3.561-1.359,4.918,0L50,44.665l13.288-13.288c1.359-1.359,3.561-1.359,4.92,0l0.416,0.416    c1.359,1.359,1.359,3.561,0,4.92L55.335,50L68.623,63.29z"/></g></g></svg>